<svg viewBox="0 0 24 24" xmlns="http://www.w3.org/2000/svg"><path d="m17.535 20.71875h3.465c0-9.765-8.0775-17.71875-18-17.71875v3.3975c8.01 0 14.535 6.42375 14.535 14.32125zm-6.12 0h3.465c0-6.44625-5.3325-11.7-11.88-11.7v3.3975c2.25 0 4.35375.86625 5.95125 2.43 1.58625 1.56375 2.46375 3.65625 2.46375 5.8725zm-6.01875-.0225c1.31625 0 2.39625-1.04625 2.39625-2.35125 0-1.29375-1.08-2.35125-2.39625-2.35125-1.3275 0-2.39625 1.0575-2.39625 2.35125 0 1.305 1.06875 2.35125 2.39625 2.35125z" fill-rule="evenodd"/></svg>