<svg viewBox="0 0 32 32"  xmlns="http://www.w3.org/2000/svg"><path d="m10 27c0 2.78125-2.265625 5-5 5-2.78125 0-5-2.21875-5-5 0-2.734375 2.21875-5 5-5 2.734375 0 5 2.265625 5 5zm22 4.328125c0 .375-.296875.671875-.671875.671875h-4.65625c-.375 0-.671875-.296875-.671875-.671875 0-14-11.328125-25.328125-25.328125-25.328125-.375 0-.671875-.296875-.671875-.671875v-4.65625c0-.375.296875-.671875.671875-.671875 17.296875 0 31.328125 14.03125 31.328125 31.328125zm-10 0c0 .375-.296875.671875-.671875.671875h-4.65625c-.375 0-.671875-.296875-.671875-.671875 0-8.46875-6.859375-15.328125-15.328125-15.328125-.375 0-.671875-.296875-.671875-.671875v-4.65625c0-.375.296875-.671875.671875-.671875 11.765625 0 21.328125 9.5625 21.328125 21.328125z" fill-rule="evenodd"/></svg>
