<svg viewBox="0 0 32 32" xmlns="http://www.w3.org/2000/svg"><path d="m22.3673429 0c5.3115421 0 9.6326571 4.20898289 9.6326571 9.38235729v13.23528541c0 5.173471-4.321115 9.3823573-9.6326571 9.3823573h-12.73458659c-5.31154208 0-9.63275631-4.2088863-9.63275631-9.3823573v-13.23528541c0-5.1733744 4.32121423-9.38235729 9.63275631-9.38235729zm6.1542582 22.6176427v-13.23528541c0-3.30527047-2.7607757-5.99428114-6.1542582-5.99428114h-12.73458659c-3.39348246 0-6.15425822 2.68901067-6.15425822 5.99428114v13.23528541c0 3.3052705 2.76077576 5.9942811 6.15425822 5.9942811h12.73458659c3.3934825 0 6.1542582-2.6890106 6.1542582-5.9942811zm-12.4595506-15.55045306c2.8144437.08000362 5.1617479 1.01598804 6.7879569 2.7069825 1.5453599 1.60683606 2.33292 3.76055676 2.2776648 6.22810816-.0530727 2.3635853-1.0114577 4.5778885-2.6984772 6.2349684-1.7138039 1.6834579-3.997024 2.6106496-6.4291454 2.6106496-5.0331829 0-9.12801944-3.9883932-9.12801944-8.8908374 0-4.9890183 4.14304844-9.03364589 9.19002034-8.88987126zm4.8150389 8.84465176c.0213283-.9502846-.1574326-2.2954663-1.1300034-3.3067198-.8346809-.867962-2.1517782-1.3515588-3.8090373-1.3987107-.0446406-.0012561-.0889837-.0018358-.1332275-.0018358-1.2343634 0-2.4022618.4933557-3.2887258 1.389145-.8979713.9075774-1.3925896 2.1020276-1.3925896 3.3633408 0 2.6190558 2.1875899 4.7497803 4.8765438 4.7497803 2.6744705 0 4.8168246-2.1061824 4.8770398-4.7949998zm3.747711-10.30122981c1.0847676 0 1.964089.85646391 1.964089 1.9130335 0 1.05647297-.8793214 1.91293688-1.964089 1.91293688-1.0847677 0-1.9640891-.85646391-1.9640891-1.91293688 0-1.05656959.8793214-1.9130335 1.9640891-1.9130335z" fill-rule="evenodd"/></svg>
