<svg viewBox="0 0 24 24" xmlns="http://www.w3.org/2000/svg"><path d="m15.9795893 2c3.3197138 0 6.0204107 2.63061431 6.0204107 5.86397331v8.27205339c0 3.2334194-2.7006969 5.8639733-6.0204107 5.8639733h-7.95911661c-3.3197138 0-6.02047269-2.6305539-6.02047269-5.8639733v-8.27205339c0-3.233359 2.70075889-5.86397331 6.02047269-5.86397331zm3.8464114 14.1360267v-8.27205339c0-2.06579404-1.7254849-3.74642572-3.8464114-3.74642572h-7.95911661c-2.12092654 0-3.84641138 1.68063168-3.84641138 3.74642572v8.27205339c0 2.065794 1.72548484 3.7464257 3.84641138 3.7464257h7.95911661c2.1209265 0 3.8464114-1.6806317 3.8464114-3.7464257zm-7.7872191-9.71903318c1.7590273.05000227 3.2260924.63499253 4.2424731 1.69186407.9658499 1.00427253 1.4580749 2.35034801 1.4235404 3.89256761-.0331704 1.4772408-.6321611 2.8611803-1.6865482 3.8968552-1.0711275 1.0521612-2.49814 1.631656-4.0182159 1.631656-3.1457393 0-5.70501215-2.4927457-5.70501215-5.5567734 0-3.11813635 2.58940529-5.64602862 5.74376275-5.55616948zm3.0093993 5.52790738c.0133302-.5939279-.0983954-1.4346664-.7062522-2.06669989-.5216755-.54247626-1.3448613-.84472425-2.3806483-.87419419-.0279004-.00078506-.0556148-.00114739-.0832672-.00114739-.7714771 0-1.5014136.3083473-2.05545356.86821565-.56123208.56723582-.87036853 1.31376722-.87036853 2.10208792 0 1.6369099 1.36724369 2.9686127 3.04783989 2.9686127 1.6715441 0 3.0105154-1.3163639 3.0481499-2.9968748zm2.3423193-6.43826866c.6779798 0 1.2275557.53528995 1.2275557 1.19564594 0 .66029561-.5495759 1.19558555-1.2275557 1.19558555-.6779797 0-1.2275557-.53528994-1.2275557-1.19558555 0-.66035599.549576-1.19564594 1.2275557-1.19564594z" fill-rule="evenodd"/></svg>