<svg viewBox="0 0 24 24" xmlns="http://www.w3.org/2000/svg"><path d="m13.1716356 10.5886041c.0083588-.0139315.019504-.0278629.0278629-.0417944v.0417944zm-10.91808308 11.0281415h4.28531625v-12.89774309h-4.28531625zm4.56812483-16.88771244c-.02646977-1.26497632-.9292282-2.22903316-2.39621065-2.22903316-1.46698244 0-2.4254667.96405684-2.4254667 2.22903316 0 1.23850654.9292282 2.22903315 2.36834773 2.22903315h.02786291c1.49623851 0 2.42546671-.99052661 2.42546671-2.22903315zm15.17832265 9.49289494c0-3.9634996-2.1161884-5.80523821-4.9373084-5.80523821-2.2777933 0-3.2933965 1.25104486-3.8631931 2.13011981v-1.82780719h-4.28670942c.05711897 1.20925049 0 12.89774309 0 12.89774309h4.28670942v-7.2025634c0-.3859013.0264697-.7718027.1421008-1.0462524.3092784-.7704096 1.0142101-1.5686821 2.198384-1.5686821 1.5519643 0 2.1719142 1.1827807 2.1719142 2.9172471v6.9002508h4.2881025z" fill-rule="evenodd"/></svg>