<svg viewBox="0 0 32 32" xmlns="http://www.w3.org/2000/svg"><path d="m17.1101432 0c7.0472879 0 11.6413071 5.07842256 11.6413071 10.5162412 0 7.219173-4.0002344 12.5944879-9.8912046 12.5944879-2.0001172 0-3.8596011-1.0313104-4.5158896-2.2501318 0 0-1.0469363 4.2189972-1.296951 5.0315448-.7812958 2.8907944-3.10955718 5.7815888-3.29706817 6.0003516-.15625915.187511-.4062738.1093814-.45315155-.0781296-.03125183-.375022-.62503662-4.0314862.07812958-7.0004102.32814423-1.4844619 2.32826144-10.0005859 2.32826144-10.0005859s-.5469071-1.1875696-.5469071-2.9220462c0-2.75016119 1.5469657-4.75027838 3.515831-4.75027838 1.671973 0 2.4845206 1.23444733 2.4845206 2.75016114 0 1.67197294-1.0781882 4.18774534-1.6407211 6.51600684-.4375257 1.9688653 1.0000586 3.5627087 2.9376721 3.5627087 3.4845792 0 5.8128406-4.4846378 5.8128406-9.7818231 0-4.04711218-2.7032834-7.04728797-7.6254468-7.04728797-5.5940778 0-9.07865695 4.15649355-9.07865695 8.78176457 0 1.6407211.48440339 2.7501611 1.21882142 3.6408383.32814422.4062738.37502197.5469071.26564056 1.0000586-.07812958.3593961-.29689239 1.1719437-.37502197 1.4688361-.10938141.4844034-.48440338.6406625-.92192902.4844034-2.56265016-1.0781882-3.75021974-3.890853-3.75021974-7.031662 0-5.21905585 4.37525636-11.485048 13.1101432-11.485048z" fill-rule="evenodd"/></svg>
