<svg viewBox="0 0 24 24" xmlns="http://www.w3.org/2000/svg"><path d="m10.7636728 15.2276266c-.5559411 2.7526724-1.23411875 5.3925111-3.24279389 6.7723734-.62058542-4.1619185.91089715-7.2871772 1.62198461-10.6051936-1.21178705-1.92992661.14574354-5.81211152 2.70213238-4.85537567 3.1452397 1.17652652-2.72446405 7.17199287 1.2164884 7.92186687 4.1137291.7816085 5.7933059-6.75004175 3.2427939-9.19947359-3.6859013-3.53663166-10.73095618-.08109923-9.86472237 4.98231359.21156321 1.2388201 1.56321706 1.6137572.54066154 3.3227178-2.35892979-.4948229-3.0641405-2.2543236-2.9724631-4.6003245.14574354-3.83869692 3.64829002-6.52672504 7.16141463-6.89931136 4.4428275-.47014047 8.6129734 1.54323608 9.1888955 5.49476671.6476185 4.46045765-2.0051491 9.29115095-6.7570939 8.94324705-1.2870095-.0952035-1.8276711-.6981586-2.8372977-1.2776067" fill-rule="evenodd"/></svg>