<svg viewBox="0 0 24 24" xmlns="http://www.w3.org/2000/svg"><path d="m12.2030877 2h-.0009097c-.0180647 0-.0350897 0-.05127.00038989 0 0-.3366011.00331402-.3633732.00331402-.8662605 0-3.80216282.24133909-5.18736081 3.34684161-.46584812 1.04476302-.35421092 2.81919665-.26460225 4.24513767.0105269.16817058.0217686.34264432.03138577.51133471-.07167394.0396384-.20261046.0890239-.40853496.0890239-.27493421 0-.59990373-.0867495-.96574624-.25829912-.09714645-.04548663-.20910855-.06822995-.3328322-.06822995-.4284841 0-.94092353.28188717-1.02078507.70205367-.05757308.3024862.07784713.7439015 1.05048134 1.1281336.08778921.0346998.1933182.068035.30469548.1032546.40184192.1276875 1.00928344.3204209 1.17407502.7086168.08531993.2011159.05126994.4600648-.10104531.769179-.00331402.007018-.00662805.0139059-.00968215.0211188-.05341431.1243735-1.33893159 3.0548174-4.19289302 3.5245644-.21944052.0362593-.37623945.2319818-.36402304.4540216.00370391.0660856.01936431.1318463.04646135.1955925.21417707.5008079 1.11780156.8677551 2.76292318 1.1230001.05497385.0744031.11215704.3371209.14711677.4971689.0343749.1578386.06985448.3207457.12040962.4925553.04958043.1688853.17843757.370781.50951529.370781.13379569 0 .29156933-.0308009.47423066-.0667354.27415445-.0535442.64941918-.1268427 1.11929612-.1268427.26044348 0 .53063409.0226783.8025142.0677101.53082903.088504.98199147.4073003 1.50417804.7765218.74799521.5288146 1.59515131 1.1276137 2.88268301 1.1276137.0354146 0 .0709591-.0011047.1061138-.0037039.0417827.0018844.0959768.0037039.1537448.0037039 1.2879216 0 2.1349477-.598864 2.8824231-1.1274837.5234212-.3696764.9741937-.6883428 1.5050878-.7766518.2714252-.0450318.5416158-.0677101.8021893-.0677101.4483032 0 .802904.0569882 1.1192311.1187851.1982567.0387936.3577849.0585478.4742956.0585478l.0121515.0001949h.0118265c.2446531 0 .4171774-.129247.4856673-.3637631.0495154-.1683005.08506-.3269189.1202147-.4875517.0348297-.1595931.091818-.4210763.1465969-.4950246 1.6455765-.2555049 2.549006-.6218023 2.7627932-1.1204008.0274219-.0638762.0432123-.1300918.0469812-.1967622.0124114-.2221047-.1445175-.4176323-.3638931-.4537616-2.855261-.4705918-4.1396086-3.4003209-4.192958-3.5245644-.0030541-.0071479-.0062381-.0142308-.0098121-.0211188-.1524452-.3091142-.1861703-.5678682-.1009153-.7689841.1647266-.3881959.7718432-.5809293 1.1737501-.7083568.112352-.0356746.2180109-.0692697.3048904-.1035146.7118009-.2811724 1.0688709-.626416 1.0613331-1.0261785-.0061731-.3139878-.2506963-.5941204-.6394121-.73298464l-.0011047-.00038989c-.1308065-.05425905-.2860459-.08389035-.4379713-.08389035-.1039044 0-.2580391.01416584-.4020368.08148606-.3385506.15874832-.6428561.24491302-.9051841.25667462-.1740188-.0081226-.2878004-.0519198-.3527163-.0877243.0081876-.14471244.0174798-.29364868.027292-.44927795l.0036389-.06049723c.0900635-1.42685075.2017657-3.20277893-.2644723-4.24832173-1.3857178-3.10686712-4.3279234-3.34859609-5.1966531-3.34859609" fill-rule="evenodd"/></svg>