<svg viewBox="0 0 24 24" xmlns="http://www.w3.org/2000/svg"><path d="m23 5.13129063c-.8091103.36104923-1.679229.60508251-2.5923535.71609765.9321271-.56307678 1.6472246-1.45319816 1.9842706-2.51434286-.8731191.52107105-1.8372506.8991226-2.8663909 1.10215029-.8231122-.88312043-1.9952721-1.43519571-3.2944492-1.43519571-2.49334 0-4.5136155 2.03527754-4.5136155 4.54461972 0 .35704869.0400054.70309588.1170159 1.03614129-3.7505114-.18902577-7.07696501-1.99827249-9.30226846-4.7476474-.38905306.67009137-.61108333 1.45119789-.61108333 2.28431149 0 1.57621494.79710869 2.96740465 2.00727372 3.78151566-.74010093-.02400327-1.43519571-.22803109-2.04427877-.56807746v.05800791c0 2.20130019 1.55521208 4.03755059 3.62149384 4.45560759-.37905169.103014-.77710597.1600218-1.18916216.1600218-.29103968 0-.57407828-.0290039-.84911579-.0830113.57407829 1.8052462 2.24130564 3.1194254 4.21557486 3.1564304-1.54421058 1.2191663-3.49047598 1.9452653-5.60576443 1.9452653-.36404964 0-.72409874-.022003-1.07714688-.0630086 1.99727236 1.2891758 4.36959585 2.0412783 6.91894349 2.0412783 8.30213211 0 12.84175111-6.9249443 12.84175111-12.92976311 0-.19702686-.0050006-.39205346-.0130017-.58708005.8821203-.64108742 1.6472246-1.44119653 2.2523071-2.35232077z" fill-rule="evenodd"/></svg>