<svg viewBox="0 0 32 32" xmlns="http://www.w3.org/2000/svg"><path id="a" d="m32 6.1000591c-1.1768878.52516252-2.4425149.88012002-3.770696 1.04159658 1.3558212-.81902078 2.3959631-2.11374278 2.8862118-3.65722599-1.2699914.75792154-2.6723645 1.30781471-4.1692959 1.6031277-1.1972541-1.2845388-2.9022139-2.08755739-4.7919261-2.08755739-3.6266764 0-6.5652589 2.96040369-6.5652589 6.61035596 0 .51934354.0581897 1.02268494.170205 1.50711464-5.4552894-.2749466-10.29376734-2.90657821-13.53057235-6.90566899-.56589535.97467836-.88884848 2.11083329-.88884848 3.3226349 0 2.29267628 1.15943083 4.31622499 2.91967086 5.50038639-1.07651043-.0349138-2.08755739-.3316816-2.97349639-.8262945v.0843752c0 3.2018911 2.26212666 5.8728008 5.26762741 6.4808837-.55134791.1498386-1.13033596.232759-1.72969041.232759-.42333046 0-.83502296-.0421875-1.23507751-.1207437.83502295 2.6258126 3.26008092 4.537346 6.13174523 4.5911715-2.24612447 1.7733328-5.07705596 2.8294768-8.15383916 2.8294768-.52952675 0-1.05323453-.0320044-1.5667591-.0916489 2.90512343 1.8751648 6.35577579 2.9691322 10.0639178 2.9691322 12.0758285 0 18.6789108-10.0726463 18.6789108-18.8069282 0-.2865846-.0072738-.57025963-.0189117-.85393467 1.2830841-.9324908 2.3959631-2.09628586 3.2760831-3.42155749z"/></svg>
