<svg viewBox="0 0 24 24" xmlns="http://www.w3.org/2000/svg"><path d="m21.9150307 6.71007513c.149066-.83734593.1453854-1.69769587-.3708246-2.34916941-.723246-.9146394-2.2571534-.94776517-3.310737-.78581695-.8557491.13066277-3.7505736 1.40784536-4.7351452 4.4664584 1.7446241-.13250309 2.6592635.12422165 2.4917943 2.04735683-.0708524.8033-.4766431 1.6838934-.9302822 2.5286007-.5235712.9744498-1.5053823 2.8847027-2.7917665 1.5081428-1.1603222-1.2422165-1.072907-3.6125496-1.3388333-5.19246493-.1481459-.88519427-.303653-1.98938671-.5935035-2.90034547-.2493634-.78397663-.82446365-1.72898132-1.52562585-1.93417708-.7545315-.22083849-1.68481363.12422165-2.23230904.44627777-1.74278373 1.02321833-3.06965497 2.48075234-4.57779781 3.68248178v.11225956c.29905212.28524971.38002623.75361134.81986288.8171024 1.03702073.15274663 2.02619312-.96524822 2.7163134.19783448.41867296.71312429.54933573 1.49250009.81802256 2.25899369.35886254 1.0222982.63583081 2.1356922.93028213 3.3098168.49688659 1.9912271 1.10787308 4.9651854 2.82765283 5.6939524.877833.3717447 2.1973429-.126062 2.8653793-.5235713 1.8090353-1.0692263 3.218721-2.6215369 4.4259714-4.2014522 2.7586408-3.7376914 4.2815062-7.97226939 4.5115462-9.18228027" fill-rule="evenodd"/></svg>