<svg viewBox="0 0 24 24" xmlns="http://www.w3.org/2000/svg"><path d="m22.4882055 10.2422055c-.0076233-.42186988-.0409932-.95521235-.0993904-1.59959591-.058685-.64467123-.142685-1.22087671-.252-1.72861644-.1249932-.57016438-.3965548-1.05071918-.8143973-1.44137671-.4179863-.39065754-.9042945-.61719863-1.4592123-.67976712-1.7345137-.19518494-4.3554863-.29284932-7.8632055-.29284932-3.50771918 0-6.12883562.09766438-7.86320548.29284932-.55477397.06256849-1.03921233.28910958-1.45317123.67976712-.41410274.3905137-.68365069.87106849-.80864384 1.44137671-.11708219.50788356-.20510959 1.08408904-.26365068 1.72861644-.0585411.64438356-.09176713 1.17758219-.09953425 1.59959591-.00791096.4218698-.01179452 1.0077123-.01179452 1.757815 0 .749959.00388356 1.3359453.01179452 1.7578151.00776712.4220137.04099315.9552123.09953425 1.5995959.05854109.6446712.14254109 1.2208767.252 1.7286164.12499315.5703083.39641096 1.0508631.81439726 1.4413768s.90443835.6171986 1.45906849.6796232c1.73436986.1953288 4.35534247.2929932 7.86320548.2929932 3.5080068 0 6.1286918-.0976644 7.8632055-.2929932.554774-.0624246 1.0392123-.2891095 1.453315-.6796232.4141028-.3905137.6835069-.8712124.8085-1.4413768.1170822-.5077397.2051096-1.084089.2637946-1.7286164.0583972-.6443836.0916233-1.177726.0993904-1.5995959.0079109-.4218698.0117945-1.0078561.0117945-1.7578151 0-.7501027-.0038836-1.3359452-.0117945-1.757815zm-6.3396987 2.3906918-5.9999589 3.7497945c-.1094589.0781027-.24236297.1170822-.39856845.1170822-.11708219 0-.23819178-.0312124-.36318493-.093637-.25775342-.1406712-.38663014-.3593014-.38663014-.6561781v-7.49987671c0-.29673287.12887672-.51550685.38663014-.65617808.26566438-.14081507.51953425-.13290411.76175338.02344521l5.9999589 3.74993838c.2343083.1326164.3513905.3436233.3513905.6327328 0 .2891096-.1170822.5001165-.3513905.6328768z" fill-rule="evenodd"/></svg>