<svg viewBox="0 0 32 32" xmlns="http://www.w3.org/2000/svg"><path d="m16 0c8.8163265 0 16 7.18367347 16 16 0 4.2653061-1.6734694 8.2857143-4.6938776 11.3061224-3.0204081 3.0204082-7.0408163 4.6938776-11.3061224 4.6938776-8.81632653 0-16-7.1836735-16-16 0-8.81632653 7.18367347-16 16-16zm9.1020408 25.1020408c2.4285714-2.4285714 3.7551021-5.6734694 3.7551021-9.1020408 0-7.10204082-5.7551021-12.85714286-12.8571429-12.85714286-7.10204082 0-12.85714286 5.75510204-12.85714286 12.85714286 0 7.1020408 5.75510204 12.8571429 12.85714286 12.8571429 3.4285714 0 6.6734694-1.3265307 9.1020408-3.7551021zm-7.4693877-18.57142856v8.85714286l6.7346938 4.122449-1.7142857 2.7755102-8.2857143-5.0612245v-10.69387756z" fill-rule="evenodd"/></svg>
