<svg xmlns="http://www.w3.org/2000/svg" viewBox="0 0 24 24">
  <path fill-rule="evenodd" d="M14.2989722,12.176322 C14.2519553,12.1294237 14.2255314,12.0657448 14.2255314,11.9993367 C14.2255314,11.9329286 14.2519553,11.8692496 14.2989722,11.8223514 L23.561202,2.56112153 C24.1468512,1.97464389 24.1461797,1.0244473 23.5597021,0.438798032 C22.9732245,-0.146851237 22.0230279,-0.14617973 21.4373786,0.440297885 L12.1761487,9.6975281 C12.1292505,9.74454504 12.0655715,9.77096888 11.9991634,9.77096888 C11.9327553,9.77096888 11.8690764,9.74454504 11.8221782,9.6975281 L2.56094827,0.440297885 C1.97529899,-0.145627512 1.02555007,-0.145851351 0.439624669,0.439797926 C-0.146300728,1.0254472 -0.146524567,1.97519613 0.439124711,2.56112153 L9.69935467,11.8223514 C9.74637162,11.8692496 9.77279546,11.9329286 9.77279546,11.9993367 C9.77279546,12.0657448 9.74637162,12.1294237 9.69935467,12.176322 L0.439124711,21.4385518 C0.0602760557,21.817579 -0.0875858948,22.369928 0.0512370248,22.8875342 C0.190059944,23.4051404 0.59447723,23.8093671 1.1121488,23.9479461 C1.62982038,24.086525 2.18209962,23.9384027 2.56094827,23.5593754 L11.8221782,14.2971456 C11.8690764,14.2501287 11.9327553,14.2237048 11.9991634,14.2237048 C12.0655715,14.2237048 12.1292505,14.2501287 12.1761487,14.2971456 L21.4373786,23.5593754 C22.0230279,24.1453008 22.9727768,24.1455246 23.5587022,23.5598754 C24.1446276,22.9742261 24.1448514,22.0244772 23.5592022,21.4385518 L14.2989722,12.176322 Z"/>
</svg>
