<svg viewBox="0 0 32 32" xmlns="http://www.w3.org/2000/svg"><path d="m24.9322917 1.5c3.898763 0 7.0677083 3.16894531 7.0677083 7.06770833v7.98958337c0 3.898763-3.1689453 7.0677083-7.0677083 7.0677083h-6.2802735l-7.3942057 6.952474c-.3072917.2688802-.6914063.422526-1.0755208.422526-.21126305 0-.40332035-.0384115-.59537764-.1152344-.57617187-.2496745-.94108073-.8066406-.94108073-1.4212239v-5.8385417h-1.53645833c-3.89876302 0-7.06770833-3.1689453-7.06770833-7.0677083v-7.98958337c0-3.89876302 3.16894531-7.06770833 7.06770833-7.06770833zm3.9947916 15.0572917v-7.98958337c0-2.20865885-1.7861328-3.99479166-3.9947916-3.99479166h-17.8229167c-2.20865885 0-3.99479167 1.78613281-3.99479167 3.99479166v7.98958337c0 2.2086588 1.78613282 3.9947916 3.99479167 3.9947916h4.609375v5.4928386l5.7041016-5.4928386h7.5094401c2.2086588 0 3.9947916-1.7861328 3.9947916-3.9947916z" fill-rule="evenodd"/></svg>
