<svg viewBox="0 0 32 32" xmlns="http://www.w3.org/2000/svg"><path d="m27.5 11.25v1.25h-23.5v-1.25c0-3.40625 5.296875-5.859375 10.5-6.203125v-2.046875h2.5v2.046875c5.1875.34375 10.5 2.796875 10.5 6.203125zm-20.203125-1.25h16.90625c-1.390625-1.203125-4.5-2.53125-8.453125-2.53125s-7.0625 1.328125-8.453125 2.53125zm17.703125 4.5h6.5v2.5h-4v7.75c0 2.34375-1.90625 4.25-4.25 4.25h-15c-2.34375 0-4.25-1.90625-4.25-4.25v-7.75h-4v-2.5h6.5v10.25c0 .96875.78125 1.75 1.75 1.75h15c.96875 0 1.75-.78125 1.75-1.75z" fill-rule="evenodd"/></svg>
