<svg viewBox="0 0 32 32" xmlns="http://www.w3.org/2000/svg"><path d="m31.5853187 7.70303474c1.9174941 6.11303656-3.2613787 11.12802096-6.4080356 13.35690296v9.30886h-18.35549859v-9.30886c-3.13026806-2.228882-8.3255297-7.2438664-6.40803566-13.35690296.93416377-2.94999084 3.26137876-4.55609696 6.57192404-4.55609696.91777493 0 1.75360567.1311107 2.29443732.24583257 1.08166329-.80305306 3.60554439-2.39277035 6.71942359-2.39277035s5.6377603 1.58971729 6.7194236 2.39277035c.5408316-.11472187 1.3766624-.24583257 2.2944373-.24583257 3.3105453 0 5.6377603 1.60610612 6.571924 4.55609696zm-8.4730292 11.60329726c2.2944373-1.6224949 7.5060878-5.9491481 5.965537-10.81663303-.5736093-1.83554986-1.9011052-2.72054711-4.0644318-2.72054711-1.212774 0-2.2124931.29499908-2.228882.29499908l-.70472.22944373-.5572205-.50805397c-.0327777-.01638884-2.4583257-2.16332662-5.5230384-2.16332662-3.0974904 0-5.4902607 2.14693778-5.5230384 2.16332662l-.55722051.50805397-.72110887-.22944373s-.99971912-.29499908-2.21249313-.29499908c-2.16332662 0-3.49082249.88499725-4.06443182 2.72054711-1.54055078 4.86748493 3.67109971 9.19413813 5.96553703 10.81663303l.55722049.3933322v8.0469194h13.11107041v-8.0469194zm-12.7996825-5.2772058 2.4583257-.8849972 2.0977713 5.7688709-2.4583257.8849973zm6.8177566 4.8838737 2.0977713-5.7688709 2.4583257.8849972-2.0977713 5.768871z" fill-rule="evenodd"/></svg>
