<svg viewBox="0 0 32 32" xmlns="http://www.w3.org/2000/svg"><path d="m31.9812785 10.0207217c.1400112 2.3601888-.4400352 5.9204736-3.9803184 9.600768-6.0204817 6.2204976-10.8008641 11.2408993-10.8408673 11.2809025l-1.1600928 1.2200976-1.1600928-1.2200976c-.0400032-.0400032-4.8203856-5.0604049-10.84086727-11.2809025-3.54028322-3.6802944-4.12032962-7.2405792-3.98031842-9.600768.1600128-2.76022086 1.40011201-5.34042728 3.32026562-6.90055209 1.66013281-1.34010721 3.84030722-2.12016961 6.02048163-2.12016961 3.30026404 0 5.40043204 1.42011361 6.64053124 3.14025122 1.2400992-1.72013761 3.3402672-3.14025122 6.6405312-3.14025122 2.1801745 0 4.3603489.7800624 6.0204817 2.12016961 1.9201536 1.56012481 3.1602528 4.14033123 3.3202656 6.90055209zm-6.2805024 7.3805904c2.7402192-2.8402272 3.200256-5.4804384 3.0802464-7.200576-.1200096-2.20017606-1.1800944-3.82030567-2.1401712-4.58036647-1.0800864-.90007201-2.5802065-1.42011361-4.0003201-1.42011361-4.5803664 0-4.9603968 4.04032322-5.0404032 4.50036002-.100008.52004161-.4600368 1.26010081-1.5401232 1.26010081-1.1200896 0-1.5801264-.6800544-1.6601328-1.28010241-.0600048-.4200336-.4600368-4.48035842-5.04040324-4.48035842-1.42011361 0-2.92023361.5200416-4.00032002 1.42011361-.96007681.7600608-2.02016161 2.38019041-2.14017121 4.58036647-.1200096 1.7201376.3400272 4.3603488 3.08024641 7.200576 4.26034086 4.4203536 7.92063366 8.2206576 9.70077606 10.0808065 1.7801424-1.8601489 5.4404352-5.6604529 9.7007761-10.0808065z" fill-rule="evenodd"/></svg>
