<svg viewBox="0 0 32 32" xmlns="http://www.w3.org/2000/svg"><path d="m5.33333333 25.3333333v4c0 .3703704-.29629629.6666667-.66666666.6666667h-4c-.37037037 0-.66666667-.2962963-.66666667-.6666667v-4c0-.3703703.2962963-.6666666.66666667-.6666666h4c.37037037 0 .66666666.2962963.66666666.6666666zm0-11.3333333v4c0 .3703704-.29629629.6666667-.66666666.6666667h-4c-.37037037 0-.66666667-.2962963-.66666667-.6666667v-4c0-.3703704.2962963-.6666667.66666667-.6666667h4c.37037037 0 .66666666.2962963.66666666.6666667zm0-11.33333333v4c0 .37037037-.29629629.66666666-.66666666.66666666h-4c-.37037037 0-.66666667-.29629629-.66666667-.66666666v-4c0-.37037037.2962963-.66666667.66666667-.66666667h4c.37037037 0 .66666666.2962963.66666666.66666667zm26.66666667 22.66666663v4c0 .3703704-.2962963.6666667-.6666667.6666667h-22.66666663c-.37037037 0-.66666667-.2962963-.66666667-.6666667v-4c0-.3703703.2962963-.6666666.66666667-.6666666h22.66666663c.3703704 0 .6666667.2962963.6666667.6666666zm0-11.3333333v4c0 .3703704-.2962963.6666667-.6666667.6666667h-22.66666663c-.37037037 0-.66666667-.2962963-.66666667-.6666667v-4c0-.3703704.2962963-.6666667.66666667-.6666667h22.66666663c.3703704 0 .6666667.2962963.6666667.6666667zm0-11.33333333v4c0 .37037037-.2962963.66666666-.6666667.66666666h-22.66666663c-.37037037 0-.66666667-.29629629-.66666667-.66666666v-4c0-.37037037.2962963-.66666667.66666667-.66666667h22.66666663c.3703704 0 .6666667.2962963.6666667.66666667z" fill-rule="evenodd"/></svg>
