<svg viewBox="0 0 32 32" xmlns="http://www.w3.org/2000/svg"><path d="m16 19.2888889c1.5555556 0 2.8 1.2638889 2.8 2.8 0 .9722222-.4861111 1.8277778-1.2444444 2.3333333v2.3333334h-3.1111112v-2.3333334c-.7583333-.5055555-1.2444444-1.3611111-1.2444444-2.3333333 0-1.5361111 1.2444444-2.8 2.8-2.8zm10.2666667-6.2027778c2.0805555.1555556 3.7333333 1.9055556 3.7333333 4.025v11.2c0 2.2361111-1.8083333 4.0444445-4.0444444 4.0444445h-19.91111116c-2.23611111 0-4.04444444-1.8083334-4.04444444-4.0444445v-11.2c0-2.1194444 1.65277778-3.8694444 3.73333333-4.025v-2.8194444c0-5.65833337 4.60833337-10.2666667 10.26666667-10.2666667s10.2666667 4.60833333 10.2666667 10.2666667zm.6222222 15.225v-11.2c0-.5055555-.4277778-.9333333-.9333333-.9333333h-14.6222223v-3.1111111h11.8222223v-2.8c0-3.94722226-3.2083334-7.15555559-7.1555556-7.15555559s-7.15555556 3.20833333-7.15555556 7.15555559v5.9111111h-2.8c-.50555555 0-.93333333.4277778-.93333333.9333333v11.2c0 .5055556.42777778.9333333.93333333.9333333h19.91111116c.5055555 0 .9333333-.4277777.9333333-.9333333z" fill-rule="evenodd"/></svg>
