<svg xmlns="http://www.w3.org/2000/svg" viewBox="0 0 24 24">
  <path fill-rule="evenodd" d="M1.5,2.5 L22.5,2.5 C23.0522847,2.5 23.5,2.94771525 23.5,3.5 L23.5,4.5 C23.5,5.05228475 23.0522847,5.5 22.5,5.5 L1.5,5.5 C0.94771525,5.5 0.5,5.05228475 0.5,4.5 L0.5,3.5 C0.5,2.94771525 0.94771525,2.5 1.5,2.5 Z M1.5,10.5 L22.5,10.5 C23.0522847,10.5 23.5,10.9477153 23.5,11.5 L23.5,12.5 C23.5,13.0522847 23.0522847,13.5 22.5,13.5 L1.5,13.5 C0.94771525,13.5 0.5,13.0522847 0.5,12.5 L0.5,11.5 C0.5,10.9477153 0.94771525,10.5 1.5,10.5 Z M1.5,18.5 L22.5,18.5 C23.0522847,18.5 23.5,18.9477153 23.5,19.5 L23.5,20.5 C23.5,21.0522847 23.0522847,21.5 22.5,21.5 L1.5,21.5 C0.94771525,21.5 0.5,21.0522847 0.5,20.5 L0.5,19.5 C0.5,18.9477153 0.94771525,18.5 1.5,18.5 Z"/>
</svg>
