<svg viewBox="0 0 32 32" xmlns="http://www.w3.org/2000/svg"><path d="m28.6451613 9.74193548c1.8548387 0 3.3548387 1.50000002 3.3548387 3.35483872v10.3225806c0 1.8548387-1.5 3.3548387-3.3548387 3.3548387h-1.2903226v-2.5806451h1.2903226c.4193548 0 .7741935-.3548387.7741935-.7741936v-10.3225806c0-.4193548-.3548387-.7741936-.7741935-.7741936h-25.29032259c-.41935484 0-.77419355.3548388-.77419355.7741936v10.3225806c0 .4193549.35483871.7741936.77419355.7741936h1.29032258v2.5806451h-1.29032258c-1.85483871 0-3.35483871-1.5-3.35483871-3.3548387v-10.3225806c0-1.8548387 1.5-3.35483872 3.35483871-3.35483872h3.35483871v-7.74193548h18.58064518v7.74193548zm-19.35483872-5.16129032v5.16129032h13.41935482v-5.16129032zm-2.58064516 25.80645164v-11.3548387h18.58064518v11.3548387zm2.58064516-8.7741936v6.1935484h13.41935482v-6.1935484zm18.06451612-7.2258064v2.5806451h-2.5806452v-2.5806451z" fill-rule="evenodd"/></svg>
