<svg height="32" viewBox="0 0 32 32" width="32" xmlns="http://www.w3.org/2000/svg"><path d="m14.2222222 5.88288288c-1.505513.86486919-2.7227181 1.60960649-3.6516516 2.23423424-.9289336.62462774-1.8738691 1.44944432-2.83483486 2.47447448-.89690139.9609658-1.58558319 1.9699647-2.06606607 3.027027-.48048288 1.0570624-.81681586 2.4184101-1.00900901 4.0840841h2.30630631c1.98599591 0 3.54754183.4884836 4.68468473 1.4654655 1.1371428.9769818 1.7057057 2.4104009 1.7057057 4.3003003 0 1.345352-.5044995 2.6025967-1.5135136 3.7717717-1.009014 1.1691751-2.39438554 1.7537538-4.15615611 1.7537538-2.75476853 0-4.7247188-.9048959-5.90990991-2.7147147-1.18519111-1.8098189-1.77777778-4.1881735-1.77777778-7.1351352 0-2.0820924.44844396-3.9799714 1.34534535-5.6936936.89690138-1.7137223 1.98597957-3.2432366 3.26726726-4.58858864 1.31331988-1.37738426 2.70669934-2.54654174 4.18018018-3.50750751 1.47348081-.96096576 2.70670171-1.7457427 3.69969971-2.35435435zm17.7777778 0c-1.505513.86486919-2.7227181 1.60960649-3.6516517 2.23423424-.9289335.62462774-1.873869 1.44944432-2.8348348 2.47447448-.9289336.9929979-1.6256233 2.0100048-2.0900901 3.051051-.4644668 1.0410463-.7927918 2.3943861-.984985 4.0600601h2.3063063c1.985996 0 3.5475419.4884836 4.6846847 1.4654655 1.1371429.9769818 1.7057057 2.4104009 1.7057057 4.3003003 0 1.345352-.5044994 2.6025967-1.5135135 3.7717717-1.009014 1.1691751-2.3943856 1.7537538-4.1561561 1.7537538-2.7547686 0-4.7247188-.9048959-5.9099099-2.7147147-1.1851912-1.8098189-1.7777778-4.1881735-1.7777778-7.1351352 0-2.0820924.4484439-3.9799714 1.3453453-5.6936936.8969014-1.7137223 1.9859796-3.2432366 3.2672673-4.58858864 1.3133199-1.37738426 2.7066993-2.54654174 4.1801802-3.50750751 1.4734808-.96096576 2.7067017-1.7457427 3.6996997-2.35435435z" fill-rule="evenodd"/></svg>