<svg xmlns="http://www.w3.org/2000/svg" viewBox="0 0 24 24">
  <path fill-rule="evenodd" d="M23.3820159,21.6140159 L16.8530159,15.0850159 C19.8101712,11.1977304 19.2496992,5.68394256 15.5708323,2.47120324 C11.8919653,-0.741536077 6.35292429,-0.554427741 2.89924827,2.89924827 C-0.554427741,6.35292429 -0.741536077,11.8919653 2.47120324,15.5708323 C5.68394256,19.2496992 11.1977304,19.8101712 15.0850159,16.8530159 L21.6140159,23.3820159 C22.1057506,23.8616745 22.8902811,23.8616745 23.3820159,23.3820159 C23.8697748,22.8936054 23.8697748,22.1024263 23.3820159,21.6140159 Z M2.74801587,9.49501587 C2.74801587,5.76709381 5.77009381,2.74501587 9.49801587,2.74501587 C13.2259379,2.74501587 16.2480159,5.76709381 16.2480159,9.49501587 C16.2480159,13.2229379 13.2259379,16.2450159 9.49801587,16.2450159 C5.77192131,16.2406076 2.75242415,13.2211104 2.74801587,9.49501587 Z"/>
</svg>
