<svg viewBox="0 0 32 32" xmlns="http://www.w3.org/2000/svg"><path d="m26.0178571.98214286c1.9285715 1.64285714 3.9821429 5.17857143 3.9821429 10.14285714 0 3.9642857-1.7142857 7.25-2.2857143 8.3392857v12.5357143h-8.5714286v-27.83928571c0-2.41071429 1.9285715-4.16071429 4.2142858-4.16071429 1 0 1.9285714.33928571 2.6607142.98214286zm-.9464285 17.28571424c.0357143-.0357142 2.0892857-3.2321428 2.0892857-7.1428571 0-4-1.6071429-6.80357143-2.9821429-7.98214286-.2321428-.19642857-.5-.28571428-.8214285-.28571428-.7321429 0-1.3571429.60714285-1.3571429 1.30357143v24.98214281h2.8571429v-10.5178571zm-11.6428572-7.6607142v-8.89285719h2.8571429v8.89285719c0 3.1964285-1.7142857 4.7678571-2.8571429 5.4642857v15.9285714h-8.57142854v-15.9285714c-1.14285715-.6964286-2.85714286-2.2678572-2.85714286-5.4642857v-8.89285719h2.85714286v8.89285719c0 2.6071428 1.83928571 3.2142857 1.85714285 3.2321428l1 .3035714v15h2.85714289v-15l1-.3035714c.1785714-.0714286 1.8571428-.7321428 1.8571428-3.2321428zm-2.8571428-8.89285719v9.14285719h-2.85714289v-9.14285719z" fill-rule="evenodd"/></svg>
