<svg viewBox="0 0 32 32" xmlns="http://www.w3.org/2000/svg"><path d="m31.8160689 13.1491908-7.7783945 7.7413546 1.9631186 10.3341527c.03704.2592798-.07408.5185597-.2963198.6667196-.1111199.0740799-.2592798.1111199-.3703997.1111199-.11112 0-.2592799-.03704-.3703998-.1111199l-8.9636737-5.778236-8.96367372 5.778236c-.22223984.1481599-.51855964.1481599-.74079948 0-.22223985-.1481599-.33335977-.4074398-.29631979-.6667196l1.96311862-10.3341527-7.77839455-7.7413546c-.18519987-.1851999-.22223984-.4815197-.1481599-.7407995.11111993-.2592798.37039975-.4074397.62967956-.4074397h10.22303286l4.4818368-11.55647191c.11112-.25927982.3703998-.44447969.6296796-.44447969s.5185596.18519987.6296796.44447969l4.4818368 11.55647191h10.2230329c.2592798 0 .5185596.1481599.6296795.4074397.07408.2592798.03704.5555996-.1481599.7407995z" fill-rule="evenodd"/></svg>
