<svg viewBox="0 0 32 32" xmlns="http://www.w3.org/2000/svg"><path d="m15.984375 17.7142857c-4.5535714 0-8-4.1428571-8-9.62499999 0-4.375 3.6607143-8.08928571 8-8.08928571s8 3.71428571 8 8.08928571c0 5.48214289-3.4464286 9.62499999-8 9.62499999zm0-14.94642856c-2.7678571 0-5.2142857 2.5-5.2142857 5.32142857 0 3.91071429 2.2321428 6.85714289 5.2142857 6.85714289s5.2142857-2.9464286 5.2142857-6.85714289c0-2.82142857-2.4464286-5.32142857-5.2142857-5.32142857zm-11.98214286 29.23214286h-2.85714285l.25-2.9285714c.625-5.8571429 5.76785714-9.0714286 14.58928571-9.0714286 8.8214286 0 13.9642857 3.2142857 14.5892857 9.0535714l.25 2.9464286h-2.8571428l-.25-2.6785714c-.5535715-5.3392857-6.6607143-6.5178572-11.7321429-6.5178572s-11.17857143 1.1785715-11.73214286 6.5357143z" fill-rule="evenodd"/></svg>
