<!-- Generated by IcoMoon.io -->
<svg version="1.1" xmlns="http://www.w3.org/2000/svg" width="32" height="32" viewBox="0 0 32 32">
<title>close</title>
<path d="M16.131 13.3l-11.716-11.715c-0.778-0.778-2.046-0.78-2.827 0.001-0.786 0.787-0.782 2.047-0.001 2.827l11.715 11.716-11.716 11.716c-0.778 0.778-0.78 2.046 0.001 2.827 0.787 0.786 2.047 0.782 2.827 0.001l11.716-11.716 11.716 11.717c0.778 0.777 2.046 0.779 2.827-0.002 0.786-0.786 0.781-2.047 0.002-2.827l-11.717-11.716 11.716-11.716c0.777-0.778 0.779-2.046-0.002-2.827-0.786-0.786-2.047-0.781-2.827-0.002l-11.716 11.716z"></path>
</svg>
