<!-- Generated by IcoMoon.io -->
<svg version="1.1" xmlns="http://www.w3.org/2000/svg" width="32" height="32" viewBox="0 0 32 32">
<title>menu</title>
<path d="M0 28c0-1.105 0.889-2 2.002-2h27.997c1.106 0 2.002 0.888 2.002 2 0 1.105-0.889 2-2.002 2h-27.997c-1.106 0-2.002-0.888-2.002-2zM0 16c0-1.105 0.889-2 2.002-2h27.997c1.106 0 2.002 0.888 2.002 2 0 1.105-0.889 2-2.002 2h-27.997c-1.106 0-2.002-0.888-2.002-2zM0 4c0-1.105 0.889-2 2.002-2h27.997c1.106 0 2.002 0.888 2.002 2 0 1.105-0.889 2-2.002 2h-27.997c-1.106 0-2.002-0.888-2.002-2z"></path>
</svg>
